<?xml version="1.0" encoding="utf-8"?>
<svg version="1.1" xmlns="http://www.w3.org/2000/svg" xmlns:xlink="http://www.w3.org/1999/xlink"
	 x="0px" y="0px" viewBox="0 0 24 24" style="enable-background:new 0 0 24 24;" xml:space="preserve">
<style type="text/css">
	.st0{fill:none;}
	.st1{fill:#FFFFFF;}
</style>
<path class="st0" d="M0,0h24v24H0"/>
<g class="st1">
	<!-- driver head -->
	<circle class="st1" cx="12" cy="4.6" r="3"/>
	<!-- shoulders -->
	<path class="st1" d="M5.5,13.2C7,11,9.3,9.7,12,9.7s5,1.3,6.5,3.5l-2.4,1.5C15,13,13.6,12.2,12,12.2s-3,0.8-4.1,2.5L5.5,13.2z"/>
	<!-- steering wheel rim -->
	<path class="st1" d="M12,12.6c-3.5,0-6.4,2.6-6.9,6h2.6c0.5-2,2.3-3.5,4.3-3.5s3.8,1.5,4.3,3.5h2.6C18.4,15.2,15.5,12.6,12,12.6z"/>
	<!-- hands gripping the rim -->
	<ellipse class="st1" cx="5.2" cy="18.9" rx="1.9" ry="1.5"/>
	<ellipse class="st1" cx="18.8" cy="18.9" rx="1.9" ry="1.5"/>
	<!-- hub + spokes -->
	<rect class="st1" x="11.1" y="14.9" width="1.8" height="4.1" rx="0.6"/>
	<rect class="st1" x="9.5" y="16.2" width="5" height="1.6" rx="0.6"/>
</g>
</svg>
